<svg width="1266" height="137" viewBox="0 0 1266 137" fill="none" xmlns="http://www.w3.org/2000/svg">
<g clip-path="url(#clip0_2020_1695)">
<path d="M106.95 40.9503C103.277 33.2236 97.9566 27.2703 90.9899 23.0903C84.0233 18.7836 75.9166 16.6303 66.6699 16.6303C57.4233 16.6303 49.0633 18.7836 41.5899 23.0903C34.2433 27.2703 28.4166 33.3503 24.1099 41.3303C19.9299 49.1836 17.8399 58.3036 17.8399 68.6903C17.8399 79.077 19.9299 88.197 24.1099 96.0503C28.4166 103.903 34.2433 109.983 41.5899 114.29C49.0633 118.47 57.4233 120.56 66.6699 120.56C79.5899 120.56 90.2299 116.697 98.5899 108.97C106.95 101.243 111.827 90.7936 113.22 77.6203H60.3999V63.5603H131.65V76.8603C130.637 87.7536 127.217 97.7603 121.39 106.88C115.563 115.873 107.9 123.03 98.3999 128.35C88.8999 133.543 78.3233 136.14 66.6699 136.14C54.3833 136.14 43.1733 133.29 33.0399 127.59C22.9066 121.763 14.8633 113.72 8.90992 103.46C3.08325 93.2003 0.169922 81.6103 0.169922 68.6903C0.169922 55.7703 3.08325 44.1803 8.90992 33.9203C14.8633 23.5336 22.9066 15.4903 33.0399 9.79029C43.1733 3.96362 54.3833 1.05029 66.6699 1.05029C80.7299 1.05029 93.1433 4.53362 103.91 11.5003C114.803 18.467 122.72 28.2836 127.66 40.9503H106.95Z" fill="black"/>
<path d="M171.801 16.6299V60.8999H220.061V75.1499H171.801V120.75H225.761V135H154.511V2.37988H225.761V16.6299H171.801Z" fill="black"/>
<path d="M333.433 2.57031V16.6303H297.333V135H280.043V16.6303H243.753V2.57031H333.433Z" fill="black"/>
<path d="M422.66 2.57031V135H405.37V2.57031H422.66Z" fill="black"/>
<path d="M556.248 135H538.958L469.418 29.5499V135H452.128V2.37988H469.418L538.958 107.64V2.37988H556.248V135Z" fill="black"/>
<path d="M717.886 2.57031V16.6303H681.786V135H664.496V16.6303H628.206V2.57031H717.886Z" fill="black"/>
<path d="M799.209 136.33C786.922 136.33 775.712 133.48 765.579 127.78C755.446 121.953 747.402 113.91 741.449 103.65C735.622 93.2636 732.709 81.6103 732.709 68.6903C732.709 55.7703 735.622 44.1803 741.449 33.9203C747.402 23.5336 755.446 15.4903 765.579 9.79029C775.712 3.96362 786.922 1.05029 799.209 1.05029C811.622 1.05029 822.896 3.96362 833.029 9.79029C843.162 15.4903 851.142 23.4703 856.969 33.7303C862.796 43.9903 865.709 55.6436 865.709 68.6903C865.709 81.737 862.796 93.3903 856.969 103.65C851.142 113.91 843.162 121.953 833.029 127.78C822.896 133.48 811.622 136.33 799.209 136.33ZM799.209 121.32C808.456 121.32 816.752 119.167 824.099 114.86C831.572 110.553 837.399 104.41 841.579 96.4303C845.886 88.4503 848.039 79.2037 848.039 68.6903C848.039 58.0503 845.886 48.8036 841.579 40.9503C837.399 32.9703 831.636 26.827 824.289 22.5203C816.942 18.2136 808.582 16.0603 799.209 16.0603C789.836 16.0603 781.476 18.2136 774.129 22.5203C766.782 26.827 760.956 32.9703 756.649 40.9503C752.469 48.8036 750.379 58.0503 750.379 68.6903C750.379 79.2037 752.469 88.4503 756.649 96.4303C760.956 104.41 766.782 110.553 774.129 114.86C781.602 119.167 789.962 121.32 799.209 121.32Z" fill="black"/>
<path d="M905.444 2.57031V86.3603C905.444 98.1403 908.294 106.88 913.994 112.58C919.821 118.28 927.864 121.13 938.124 121.13C948.258 121.13 956.174 118.28 961.874 112.58C967.701 106.88 970.614 98.1403 970.614 86.3603V2.57031H987.904V86.1703C987.904 97.1903 985.688 106.5 981.254 114.1C976.821 121.573 970.804 127.147 963.204 130.82C955.731 134.493 947.308 136.33 937.934 136.33C928.561 136.33 920.074 134.493 912.474 130.82C905.001 127.147 899.048 121.573 894.614 114.1C890.308 106.5 888.154 97.1903 888.154 86.1703V2.57031H905.444Z" fill="black"/>
<path d="M1010.29 68.6899C1010.29 55.7699 1013.2 44.1799 1019.03 33.9199C1024.85 23.5332 1032.77 15.4266 1042.78 9.59987C1052.91 3.77321 1064.12 0.859863 1076.41 0.859863C1090.85 0.859863 1103.45 4.3432 1114.22 11.3099C1124.98 18.2766 1132.84 28.1566 1137.78 40.9499H1117.07C1113.39 32.9699 1108.07 26.8266 1101.11 22.5199C1094.27 18.2132 1086.03 16.0599 1076.41 16.0599C1067.16 16.0599 1058.86 18.2132 1051.52 22.5199C1044.17 26.8266 1038.41 32.9699 1034.23 40.9499C1030.05 48.8032 1027.96 58.0499 1027.96 68.6899C1027.96 79.2033 1030.05 88.4499 1034.23 96.4299C1038.41 104.283 1044.17 110.363 1051.52 114.67C1058.86 118.977 1067.16 121.13 1076.41 121.13C1086.03 121.13 1094.27 119.04 1101.11 114.86C1108.07 110.553 1113.39 104.41 1117.07 96.4299H1137.78C1132.84 109.097 1124.98 118.913 1114.22 125.88C1103.45 132.72 1090.85 136.14 1076.41 136.14C1064.12 136.14 1052.91 133.29 1042.78 127.59C1032.77 121.763 1024.85 113.72 1019.03 103.46C1013.2 93.1999 1010.29 81.6099 1010.29 68.6899Z" fill="black"/>
<path d="M1265.54 2.57031V135H1248.25V74.9603H1180.8V135H1163.51V2.57031H1180.8V60.7103H1248.25V2.57031H1265.54Z" fill="black"/>
</g>
<defs>
<clipPath id="clip0_2020_1695">
<rect width="1266" height="137" fill="white"/>
</clipPath>
</defs>
</svg>
